<?xml version="1.0" standalone="no"?>
<!DOCTYPE svg PUBLIC "-//W3C//DTD SVG 20010904//EN"
 "http://www.w3.org/TR/2001/REC-SVG-20010904/DTD/svg10.dtd">
<svg version="1.0" xmlns="http://www.w3.org/2000/svg"
 width="512.000000pt" height="512.000000pt" viewBox="0 0 512.000000 512.000000"
 preserveAspectRatio="xMidYMid meet">
<metadata>
Created by potrace 1.14, written by Peter Selinger 2001-2017
</metadata>
<g transform="translate(0.000000,512.000000) scale(0.100000,-0.100000)"
fill="#000000" stroke="none">
<path d="M2475 5105 c-519 -83 -954 -363 -1233 -795 -76 -117 -163 -302 -206
-440 -56 -176 -77 -309 -83 -511 l-5 -177 178 -4 c162 -4 186 -7 248 -31 74
-28 154 -78 201 -127 29 -30 30 -35 30 -123 -1 -74 -15 -159 -74 -440 -40
-192 -71 -354 -69 -361 2 -8 143 27 475 118 l472 130 3 201 c3 179 5 204 23
235 28 48 100 84 150 74 47 -9 109 -69 118 -114 4 -18 7 -117 7 -219 l0 -187
643 -111 c353 -61 644 -109 646 -107 7 7 -78 727 -86 734 -5 4 -113 54 -240
111 l-233 104 0 78 0 77 90 0 90 0 0 -30 0 -30 155 0 155 0 0 138 c0 333 -99
606 -301 826 l-52 57 211 212 c117 117 212 216 212 220 0 17 -136 125 -262
208 -192 126 -418 221 -643 269 -132 29 -482 37 -620 15z m410 -300 c172 -12
394 -79 564 -172 l83 -45 -105 -106 -106 -105 -79 36 c-179 82 -348 113 -567
104 -173 -7 -283 -35 -440 -111 -182 -89 -334 -215 -457 -380 -109 -146 -199
-368 -214 -524 -8 -97 -5 -93 -72 -66 -32 13 -92 29 -133 36 -41 6 -78 15 -83
19 -12 11 19 172 55 287 165 512 589 895 1119 1007 81 18 263 34 320 29 19 -2
71 -6 115 -9z m17 -609 c325 -64 592 -304 682 -613 l15 -53 -235 0 -234 0 0
-334 0 -333 250 -113 c278 -126 249 -102 265 -219 6 -43 5 -44 -22 -38 -15 2
-157 27 -315 53 l-288 49 0 65 c0 160 -49 288 -145 379 -269 254 -712 102
-765 -264 -5 -38 -10 -98 -10 -131 l0 -62 -116 -31 c-64 -18 -117 -31 -119
-29 -2 2 10 68 26 148 36 184 37 265 2 428 -38 178 -38 338 1 467 94 312 361
563 670 630 82 18 248 18 338 1z"/>
<path d="M1745 2020 c-27 -6 -385 -83 -795 -173 l-745 -163 -3 -162 -2 -162
-100 0 -100 0 0 -455 0 -455 986 -2 986 -3 22 -60 c63 -173 229 -322 413 -370
74 -19 233 -19 307 0 183 48 355 204 416 379 l18 51 986 3 986 2 0 455 0 455
-100 0 -100 0 -2 162 -3 162 -765 169 -765 169 -145 2 c-124 1 -157 -2 -223
-22 -156 -45 -311 -141 -408 -252 l-51 -59 -38 47 c-92 118 -256 220 -425 267
-72 19 -279 28 -350 15z m258 -315 c203 -53 378 -241 394 -425 l6 -60 -69 39
c-80 46 -163 76 -255 90 -40 7 -342 11 -817 11 l-753 0 3 37 3 36 650 143
c685 150 730 157 838 129z m1947 -129 l655 -143 3 -36 3 -36 -793 -3 c-774 -4
-795 -4 -859 -25 -88 -28 -151 -56 -203 -91 l-42 -29 8 66 c28 232 265 439
503 440 54 1 222 -33 725 -143z m-1885 -541 c169 -44 317 -211 332 -375 l6
-60 157 0 157 0 6 60 c11 121 107 264 222 330 107 61 87 60 1017 60 l848 0 0
-145 0 -145 -974 0 -973 0 -5 -113 c-3 -89 -9 -122 -26 -157 -35 -73 -78 -117
-147 -151 -58 -28 -71 -31 -137 -27 -87 4 -153 34 -205 91 -59 66 -76 117 -81
245 l-5 112 -973 0 -974 0 0 145 0 145 848 0 c732 0 856 -2 907 -15z"/>
</g>
</svg>
